<?xml version="1.0" encoding="UTF-8"?>
<!DOCTYPE svg PUBLIC "-//W3C//DTD SVG 1.1//EN" "http://www.w3.org/Graphics/SVG/1.1/DTD/svg11.dtd">
<svg xmlns="http://www.w3.org/2000/svg" version="1.1" width="1386px" height="471px" style="shape-rendering:geometricPrecision; text-rendering:geometricPrecision; image-rendering:optimizeQuality; fill-rule:evenodd; clip-rule:evenodd" xmlns:xlink="http://www.w3.org/1999/xlink">
<g><path style="opacity:1" fill="#9cf0d8" d="M 210.5,-0.5 C 249.167,-0.5 287.833,-0.5 326.5,-0.5C 310.713,71.1448 294.38,142.645 277.5,214C 286.827,214.5 296.161,214.666 305.5,214.5C 293.817,268.565 281.817,322.565 269.5,376.5C 230.167,376.5 190.833,376.5 151.5,376.5C 152.016,372.092 152.516,367.759 153,363.5C 127.303,375.089 100.469,379.255 72.5,376C 43.48,369.314 25.3133,351.481 18,322.5C 12.7381,297.893 12.7381,273.227 18,248.5C 20.0524,237.29 22.8857,226.29 26.5,215.5C 17.5246,214.502 8.52461,214.168 -0.5,214.5C -0.5,213.833 -0.5,213.167 -0.5,212.5C 16.4194,168.486 44.4194,133.319 83.5,107C 116.571,87.1122 151.571,82.9455 188.5,94.5C 195.367,62.7003 202.7,31.0337 210.5,-0.5 Z M 159.5,177.5 C 162.391,178.403 165.391,178.736 168.5,178.5C 166.308,190.269 163.641,201.936 160.5,213.5C 169.81,214.498 179.143,214.832 188.5,214.5C 183.132,239.343 177.132,264.01 170.5,288.5C 161.103,292.626 151.436,293.46 141.5,291C 135.128,287.279 130.961,281.779 129,274.5C 125.929,253.521 129.429,233.687 139.5,215C 130.167,214.667 120.833,214.333 111.5,214C 121.254,193.322 137.254,181.156 159.5,177.5 Z"/></g>
<g><path style="opacity:1" fill="#9cf0d8" d="M 582.5,0.5 C 623.5,0.5 664.5,0.5 705.5,0.5C 698.67,30.4859 691.837,60.4859 685,90.5C 664.572,91.1639 644.072,91.4972 623.5,91.5C 602.687,91.6621 582.021,91.1621 561.5,90C 568.574,60.2018 575.574,30.3685 582.5,0.5 Z"/></g>
<g><path style="opacity:1" fill="#9cf0d8" d="M 1033.5,0.5 C 1074.5,0.5 1115.5,0.5 1156.5,0.5C 1150.36,30.8855 1143.36,61.0522 1135.5,91C 1094.83,91.5 1054.17,91.6667 1013.5,91.5C 1020.01,61.1369 1026.67,30.8035 1033.5,0.5 Z"/></g>
<g><path style="opacity:1" fill="#9cf0d8" d="M 1312.5,97.5 C 1311.96,97.56 1311.62,97.8933 1311.5,98.5C 1336.16,99.4998 1360.82,99.8331 1385.5,99.5C 1385.5,100.5 1385.5,101.5 1385.5,102.5C 1379.25,128.922 1372.91,155.422 1366.5,182C 1341.5,182.5 1316.5,182.667 1291.5,182.5C 1289.48,194.561 1287.15,206.561 1284.5,218.5C 1293.17,218.5 1301.83,218.5 1310.5,218.5C 1305.14,242.445 1299.98,266.445 1295,290.5C 1294.03,297.665 1295.37,304.332 1299,310.5C 1303.62,314.611 1308.78,315.445 1314.5,313C 1322.5,309 1328.5,303 1332.5,295C 1343.83,294.333 1355.17,294.333 1366.5,295C 1361.09,323.7 1354.76,352.367 1347.5,381C 1308.55,385.458 1269.55,386.125 1230.5,383C 1196.74,381.903 1177.58,364.736 1173,331.5C 1171.95,317.355 1172.95,303.355 1176,289.5C 1181.66,265.855 1187.16,242.189 1192.5,218.5C 1183.48,218.832 1174.48,218.498 1165.5,217.5C 1168.17,206.167 1170.83,194.833 1173.5,183.5C 1163.86,182.502 1154.19,182.168 1144.5,182.5C 1150.34,154.778 1156.51,127.111 1163,99.5C 1173.08,98.5139 1183.25,98.1806 1193.5,98.5C 1198.83,74.5 1204.17,50.5 1209.5,26.5C 1249.17,26.1668 1288.84,26.5001 1328.5,27.5C 1322.78,50.7518 1317.45,74.0851 1312.5,97.5 Z"/></g>
<g><path style="opacity:1" fill="#9cf0d8" d="M 770.5,470.5 C 731.167,470.5 691.833,470.5 652.5,470.5C 672.323,385.54 691.99,300.54 711.5,215.5C 703.167,215.5 694.833,215.5 686.5,215.5C 695.341,176.468 704.341,137.468 713.5,98.5C 752.494,97.5001 791.494,97.1668 830.5,97.5C 829.984,101.908 829.484,106.241 829,110.5C 851.458,99.8022 875.124,93.8022 900,92.5C 937.708,92.8723 960.374,111.539 968,148.5C 971.316,170.853 971.149,193.186 967.5,215.5C 973.833,215.5 980.167,215.5 986.5,215.5C 993.269,184.592 1000.27,153.759 1007.5,123C 1047.17,122.167 1086.84,122.333 1126.5,123.5C 1119.23,155.04 1111.89,186.54 1104.5,218C 1113.5,218.333 1122.5,218.667 1131.5,219C 1119.26,271.351 1107.6,323.851 1096.5,376.5C 1056.83,376.5 1017.17,376.5 977.5,376.5C 988.706,323.805 1000.04,271.139 1011.5,218.5C 1004.91,218.189 998.41,218.522 992,219.5C 982.171,275.368 955.337,320.868 911.5,356C 875.043,382.621 835.043,390.454 791.5,379.5C 784.026,409.731 777.026,440.064 770.5,470.5 Z M 822.5,180.5 C 838.679,178.838 847.513,186.171 849,202.5C 849.499,206.821 849.666,211.154 849.5,215.5C 857.833,215.5 866.167,215.5 874.5,215.5C 872.093,243.138 861.427,266.971 842.5,287C 833.821,294.342 823.821,297.675 812.5,297C 811.484,296.481 810.818,295.647 810.5,294.5C 816.662,268.188 822.662,241.855 828.5,215.5C 820.5,215.5 812.5,215.5 804.5,215.5C 806.218,205.412 808.384,195.412 811,185.5C 814.876,183.716 818.709,182.049 822.5,180.5 Z"/></g>
<g><path style="opacity:1" fill="#9cf0d9" d="M 349.5,96.5 C 388.167,96.5 426.833,96.5 465.5,96.5C 465.315,100.244 464.648,103.911 463.5,107.5C 463.833,108.167 464.167,108.833 464.5,109.5C 492.946,95.3017 522.279,92.635 552.5,101.5C 545.021,132.084 537.854,162.751 531,193.5C 530.837,195.676 530.004,197.509 528.5,199C 518.483,199.832 508.483,199.666 498.5,198.5C 494.484,188.402 486.984,184.068 476,185.5C 461.909,185.215 450.575,190.548 442,201.5C 441.06,205.762 439.894,209.928 438.5,214C 446.188,214.169 453.855,214.669 461.5,215.5C 449.167,268.833 436.833,322.167 424.5,375.5C 385.5,376.833 346.5,376.833 307.5,375.5C 319.833,322.167 332.167,268.833 344.5,215.5C 337.197,214.503 329.863,214.169 322.5,214.5C 330.994,175.027 339.994,135.694 349.5,96.5 Z"/></g>
<g><path style="opacity:0.945" fill="#9ef0d9" d="M 1312.5,97.5 C 1336.66,98.4976 1360.99,98.831 1385.5,98.5C 1385.5,98.8333 1385.5,99.1667 1385.5,99.5C 1360.82,99.8331 1336.16,99.4998 1311.5,98.5C 1311.62,97.8933 1311.96,97.56 1312.5,97.5 Z"/></g>
<g><path style="opacity:1" fill="#9cf0d8" d="M 555.5,122.5 C 595.167,122.5 634.833,122.5 674.5,122.5C 667.756,154.551 660.756,186.551 653.5,218.5C 662.167,218.5 670.833,218.5 679.5,218.5C 668.066,270.833 656.566,323.167 645,375.5C 605.238,376.663 565.404,376.83 525.5,376C 537.098,323.844 548.765,271.678 560.5,219.5C 551.859,218.502 543.192,218.169 534.5,218.5C 541.756,186.555 548.756,154.555 555.5,122.5 Z"/></g>
</svg>
